<?xml version="1.0"?>
<svg width="200" height="200" xmlns="http://www.w3.org/2000/svg" xmlns:svg="http://www.w3.org/2000/svg" enable-background="new 0 0 243 288" version="1.1" xml:space="preserve">
 <style type="text/css">.st0{fill:none;}
	.st1{fill:url(#SVGID_1_);}
	.st2{fill:url(#SVGID_2_);}
	.st3{fill:url(#SVGID_3_);}
	.st4{fill:url(#SVGID_4_);}
	.st5{fill:url(#SVGID_5_);}
	.st6{fill:url(#SVGID_6_);}
	.st7{fill:url(#SVGID_7_);}
	.st8{fill:url(#SVGID_8_);}
	.st9{fill:url(#SVGID_9_);}
	.st10{fill:url(#SVGID_10_);}
	.st11{fill:url(#SVGID_11_);}
	.st12{fill:url(#SVGID_12_);}
	.st13{fill:url(#SVGID_13_);}
	.st14{fill:url(#SVGID_14_);}
	.st15{fill:url(#SVGID_15_);}
	.st16{fill:url(#SVGID_16_);}
	.st17{fill:url(#SVGID_17_);}
	.st18{fill:url(#SVGID_18_);}
	.st19{fill:url(#SVGID_19_);}
	.st20{fill:url(#SVGID_20_);}
	.st21{fill:url(#SVGID_21_);}
	.st22{fill:url(#SVGID_22_);}
	.st23{fill:url(#SVGID_23_);}
	.st24{fill:url(#SVGID_24_);}
	.st25{fill:url(#SVGID_25_);}
	.st26{fill:url(#SVGID_26_);}</style>
 <linearGradient gradientTransform="matrix(1 0 0 -1 0 290.3937)" gradientUnits="userSpaceOnUse" id="SVGID_1_" x1="163.7" x2="82.95" y1="215.23" y2="94.87">
  <stop offset="0" stop-color="#F9E0C6"/>
  <stop offset="0.17" stop-color="#FF9DA5"/>
  <stop offset="0.41" stop-color="#E5468D"/>
  <stop offset="0.54" stop-color="#A12EC5"/>
  <stop offset="0.81" stop-color="#493FB7"/>
  <stop offset="1" stop-color="#1874CB"/>
 </linearGradient>
 <linearGradient gradientTransform="matrix(1 0 0 -1 0 290.3937)" gradientUnits="userSpaceOnUse" id="SVGID_2_" x1="122.62" x2="98.17" y1="250.08" y2="139.53">
  <stop offset="0" stop-color="#FFFEFE"/>
  <stop offset="0.23" stop-color="#FFA2A5"/>
  <stop offset="1" stop-color="#D74199" stop-opacity="0"/>
 </linearGradient>
 <linearGradient gradientTransform="matrix(1 0 0 -1 0 290.3937)" gradientUnits="userSpaceOnUse" id="SVGID_3_" x1="135.12" x2="115.16" y1="255.76" y2="127.95">
  <stop offset="0.14" stop-color="#FAF7EF"/>
  <stop offset="0.46" stop-color="#FFDACE"/>
  <stop offset="1" stop-color="#E5468E" stop-opacity="0.32"/>
 </linearGradient>
 <linearGradient gradientTransform="matrix(1 0 0 -1 0 290.3937)" gradientUnits="userSpaceOnUse" id="SVGID_4_" x1="134.14" x2="127.38" y1="254.81" y2="131.98">
  <stop offset="0.56" stop-color="#FAF7EF"/>
  <stop offset="1" stop-color="#F09EB5"/>
 </linearGradient>
 <linearGradient gradientTransform="matrix(1 0 0 -1 0 290.3937)" gradientUnits="userSpaceOnUse" id="SVGID_5_" x1="22.27" x2="87.31" y1="91.48" y2="118.06">
  <stop offset="0" stop-color="#FFC4E4"/>
  <stop offset="0.2" stop-color="#F31D92"/>
  <stop offset="1" stop-color="#D026A8"/>
 </linearGradient>
 <linearGradient gradientTransform="matrix(1 0 0 -1 0 290.3937)" gradientUnits="userSpaceOnUse" id="SVGID_6_" x1="22.38" x2="91.68" y1="93.96" y2="124.16">
  <stop offset="0" stop-color="#F8F5F3"/>
  <stop offset="1" stop-color="#ECC9DC"/>
 </linearGradient>
 <linearGradient gradientTransform="matrix(1 0 0 -1 0 290.3937)" gradientUnits="userSpaceOnUse" id="SVGID_7_" x1="40.83" x2="90.13" y1="252.56" y2="176.81">
  <stop offset="0.12" stop-color="#7CB3E9"/>
  <stop offset="0.26" stop-color="#1D6EBD"/>
  <stop offset="1" stop-color="#D31379"/>
 </linearGradient>
 <linearGradient gradientTransform="matrix(1 0 0 -1 0 290.3937)" gradientUnits="userSpaceOnUse" id="SVGID_8_" x1="26.72" x2="91.24" y1="227.5" y2="178.33">
  <stop offset="0.04" stop-color="#FF7C8E"/>
  <stop offset="0.14" stop-color="#F13D56"/>
  <stop offset="1" stop-color="#913CB1"/>
 </linearGradient>
 <linearGradient gradientTransform="matrix(1 0 0 -1 0 290.3937)" gradientUnits="userSpaceOnUse" id="SVGID_9_" x1="24.91" x2="100.41" y1="203" y2="165.7">
  <stop offset="0.04" stop-color="#FF8DA0"/>
  <stop offset="0.12" stop-color="#F43857"/>
  <stop offset="1" stop-color="#8424A3"/>
 </linearGradient>
 <linearGradient gradientTransform="matrix(1 0 0 -1 0 290.3937)" gradientUnits="userSpaceOnUse" id="SVGID_10_" x1="27.07" x2="100.24" y1="178.75" y2="162.1">
  <stop offset="0" stop-color="#FF80B3"/>
  <stop offset="0.3" stop-color="#F4267A"/>
  <stop offset="1" stop-color="#C61C93"/>
 </linearGradient>
 <linearGradient gradientTransform="matrix(1 0 0 -1 0 290.3937)" gradientUnits="userSpaceOnUse" id="SVGID_11_" x1="46.79" x2="114.8" y1="142.58" y2="147.09">
  <stop offset="0.05" stop-color="#FF87CC"/>
  <stop offset="0.1" stop-color="#EE289A"/>
  <stop offset="0.9" stop-color="#CA0C7E"/>
 </linearGradient>
 <linearGradient gradientTransform="matrix(1 0 0 -1 0 290.3937)" gradientUnits="userSpaceOnUse" id="SVGID_12_" x1="31.66" x2="136.19" y1="165.3" y2="147.87">
  <stop offset="0" stop-color="#FF8DBC"/>
  <stop offset="0.14" stop-color="#EE2E7D"/>
  <stop offset="1" stop-color="#BE2591"/>
 </linearGradient>
 <linearGradient gradientTransform="matrix(1 0 0 -1 0 290.3937)" gradientUnits="userSpaceOnUse" id="SVGID_13_" x1="32.39" x2="92.27" y1="80.88" y2="118.94">
  <stop offset="0.06" stop-color="#FFA8D8"/>
  <stop offset="0.26" stop-color="#F81993"/>
  <stop offset="1" stop-color="#CC27A9"/>
 </linearGradient>
 <linearGradient gradientTransform="matrix(1 0 0 -1 0 290.3937)" gradientUnits="userSpaceOnUse" id="SVGID_15_" x1="27.7" x2="88.17" y1="218.7" y2="174.13">
  <stop offset="0.04" stop-color="#ACAAFE"/>
  <stop offset="0.2" stop-color="#3F3CB4"/>
  <stop offset="1" stop-color="#CD147C"/>
 </linearGradient>
 <linearGradient gradientTransform="matrix(1 0 0 -1 0 290.3937)" gradientUnits="userSpaceOnUse" id="SVGID_16_" x1="46.16" x2="83.44" y1="209.9" y2="156.91">
  <stop offset="0" stop-color="#8A87FF"/>
  <stop offset="0.33" stop-color="#3F3CB4"/>
  <stop offset="1" stop-color="#CB147E"/>
 </linearGradient>
 <linearGradient gradientTransform="matrix(1 0 0 -1 0 290.3937)" gradientUnits="userSpaceOnUse" id="SVGID_17_" x1="51.1" x2="99.62" y1="139.75" y2="153.04">
  <stop offset="0" stop-color="#3F3CB4"/>
  <stop offset="1" stop-color="#CA0C7E"/>
 </linearGradient>
 <linearGradient gradientTransform="matrix(1 0 0 -1 0 290.3937)" gradientUnits="userSpaceOnUse" id="SVGID_18_" x1="14.87" x2="95.53" y1="158.03" y2="164.09">
  <stop offset="0" stop-color="#3F3CB4"/>
  <stop offset="1" stop-color="#CA0C7E"/>
 </linearGradient>
 <linearGradient gradientTransform="matrix(1 0 0 -1 0 290.3937)" gradientUnits="userSpaceOnUse" id="SVGID_19_" x1="70.49" x2="116.17" y1="127.73" y2="144.64">
  <stop offset="0" stop-color="#C213A1"/>
  <stop offset="1" stop-color="#CA0C7E"/>
 </linearGradient>
 <linearGradient gradientTransform="matrix(1 0 0 -1 0 290.3937)" gradientUnits="userSpaceOnUse" id="SVGID_20_" x1="58.41" x2="110.55" y1="134.87" y2="146.61">
  <stop offset="0" stop-color="#4C15B5"/>
  <stop offset="1" stop-color="#CA0C7E"/>
 </linearGradient>
 <linearGradient gradientTransform="matrix(1 0 0 -1 0 290.3937)" gradientUnits="userSpaceOnUse" id="SVGID_21_" x1="50.16" x2="174.31" y1="255.56" y2="121.35">
  <stop offset="0" stop-color="#FFFCE3"/>
  <stop offset="1" stop-color="#FFFFFF"/>
 </linearGradient>
 <linearGradient gradientTransform="matrix(1 0 0 -1 0 290.3937)" gradientUnits="userSpaceOnUse" id="SVGID_22_" x1="69.11" x2="110.14" y1="128.53" y2="137.05">
  <stop offset="0.01" stop-color="#FF4FB5"/>
  <stop offset="0.09" stop-color="#E92496"/>
  <stop offset="1" stop-color="#C90E86"/>
 </linearGradient>
 <linearGradient gradientTransform="matrix(1 0 0 -1 0 290.3937)" gradientUnits="userSpaceOnUse" id="SVGID_23_" x1="78.91" x2="112.82" y1="142.83" y2="132.76">
  <stop offset="0" stop-color="#6562E9"/>
  <stop offset="0.19" stop-color="#3F3CB4"/>
  <stop offset="1" stop-color="#CA0C7E"/>
 </linearGradient>
 <radialGradient cx="-713.13" cy="575.76" gradientTransform="matrix(21.6808 33.4246 71.7533 -46.5427 -25740.1328 50786.1328)" gradientUnits="userSpaceOnUse" id="SVGID_24_" r="1">
  <stop offset="0.01" stop-color="#E92190"/>
  <stop offset="0.35" stop-color="#CD27A8"/>
  <stop offset="0.62" stop-color="#861FB5"/>
  <stop offset="0.93" stop-color="#2495DF"/>
  <stop offset="1" stop-color="#1FA2FF"/>
 </radialGradient>
 <linearGradient gradientTransform="matrix(1 0 0 -1 0 290.3937)" gradientUnits="userSpaceOnUse" id="SVGID_25_" x1="161.5" x2="178" y1="153.76" y2="143.09">
  <stop offset="0" stop-color="#FFFFFF"/>
  <stop offset="1" stop-color="#0094FF"/>
 </linearGradient>
 <linearGradient gradientTransform="matrix(1 0 0 -1 0 290.3937)" gradientUnits="userSpaceOnUse" id="SVGID_26_" x1="161.56" x2="178.05" y1="153.84" y2="143.17">
  <stop offset="0" stop-color="#FFFFFF"/>
  <stop offset="1" stop-color="#0094FF"/>
 </linearGradient>
 <g class="layer">
  <title>Layer 1</title>
  <rect class="st0" height="196" id="svg_1" width="197.4" x="1" y="2"/>
  <circle class="st1" cx="105.6" cy="113" id="svg_2" r="72"/>
  <path class="st2" d="m106.8,18.6l0,7.1l-3.7,13.5l-6.3,29.2l-1.9,38.9c-5.9,9.8 -17.1,19.9 -14.4,-18c2.8,-37.8 18.7,-62.9 26.3,-70.7z" id="svg_3"/>
  <path class="st3" d="m107.5,77.4c8.3,6.8 9.1,32.5 8.5,44.5l0.1,1.6l1.9,2.2l-4.2,11.3l-19.6,-4.2l-8.4,-28.6c2.1,-54.9 22.1,-84.7 29.7,-89.2c6.8,-4 6.8,-1.4 6,0.4c-8.1,15.4 -13.2,45.6 -14,62z" id="svg_4"/>
  <path class="st4" d="m107.5,77.4c8.3,6.8 9.1,32.5 8.5,44.5l0.1,1.6l1.9,2.2l-4.4,0.3l0.1,-2.8c0,-32.3 -5.9,-43 -8.9,-44.7c-1.6,-23.9 13.9,-66 16.4,-65.4c0.8,0.2 0.4,1.6 0.1,2.4c-7.9,15.3 -13,45.5 -13.8,61.9z" id="svg_5"/>
  <path class="st5" d="m4.1,172.8c3.4,8.1 25.9,0.4 36.8,-4.4l9.7,-3.6l18.5,-9.7c1.4,-5.5 4.8,-15.8 1.7,-11.8c-3.1,4 -10.3,8.4 -12.9,10.1c-10.4,4.6 -33.7,14.2 -43.4,15.6c-9.7,1.5 -11,3.2 -10.4,3.8z" id="svg_6"/>
  <path class="st6" d="m4.5,171.7c-1.3,1 0.1,2.2 0.6,2.2c0.4,-0.1 19,-4.5 36.7,-11.2c17.7,-6.7 20.8,-10.8 21.8,-11.6c1,-0.8 20,-15.5 18.8,-15.4c-1.2,0.1 -22.4,16.3 -24.3,17.4c-1.8,1.2 -17.7,7.5 -18.7,8c-1,0.5 -20.8,7.2 -21.9,7.4c-0.8,0.1 -11.3,1.8 -13,3.2z" id="svg_7"/>
  <path class="st7" d="m20.3,23.8c1.3,-4.1 2.4,-2.2 2.7,-0.6c5.9,18.6 24.4,33.6 32.9,38.8c-28,-23 -23.9,-41.8 -22.5,-49.6c1.1,-6.2 2.9,-5.9 3.6,-4.9c2.5,18.2 9.8,29.3 28.9,49.8c16.9,18.2 29,33.7 27.9,44.3l-13.3,-12.5l-8.3,-4.9l-13,-7.5c-5.2,-2 -18.1,-8.6 -28.5,-18.8c-13,-12.8 -12.1,-28.9 -10.4,-34.1z" id="svg_8"/>
  <path class="st8" d="m13.7,38.2c-2.7,-4 -3,3 -2.8,7c0,0 2,4 3.9,5.9c2.3,2.5 3,3.5 5.7,5.4c3.1,2.3 8.3,5.5 8.3,5.5l20.3,9.8l14.5,7.4l8.5,4.8l-2.5,-1.7c-8.3,-7.2 -19.1,-8.4 -32.9,-19c-17.5,-13.1 -19.7,-20 -23,-25.1z" id="svg_9"/>
  <path class="st9" d="m10.9,63.3c-5.7,-6.4 -3.7,1.7 -1.9,6.6c0.6,0.9 2.3,2 3.1,2.6c2.2,1.4 8.4,4.8 13.7,7.2c5.3,2.5 24.5,6.7 24.5,6.7l22.5,7.1c-3,-1.7 -11,-6.4 -20.5,-8.3c-12.7,-1.8 -34.4,-13.9 -41.4,-21.9z" id="svg_10"/>
  <path class="st10" d="m82.6,101c-1.1,0.5 -10.8,-0.2 -13.2,0c-3.4,0.3 -18.9,1 -26.6,0.9c-18.1,-1 -27.6,-7.9 -30.1,-11.2c-7.5,-9.8 1.1,-5.5 6.3,-2.2c6.6,8 23.5,9.5 33,10.6c9.2,-0.1 31.7,1.3 30.6,1.9z" id="svg_11"/>
  <path class="st11" d="m29.3,121.1c-2.9,-3.1 1.6,-2.1 4.3,-1.2c11.6,16.9 36.7,7.9 49.3,1.9l15.4,-8.8c-43.3,34.9 -65.4,12 -69,8.1z" id="svg_12"/>
  <path class="st12" d="m14.7,104.7c-5.1,-6.7 0.5,-5.2 3.9,-3.6c12.1,18.2 58.8,9.2 73.3,4.6l-13.8,4.6c-37.1,16.7 -57.1,2.8 -63.4,-5.6z" id="svg_13"/>
  <path class="st13" d="m16.7,183.2c7.6,0 34.2,-13.9 34.7,-14.1l5.8,0l8.8,-13.4l4.1,-7.2l0,-4.1c-11.3,14.9 -22.5,21.5 -26.7,23c-8.1,4 -17.3,7.1 -28.4,11.5c-1.2,0.5 -1.8,0.4 -2.5,1.4c-1.2,1.7 2,2.9 4.2,2.9z" id="svg_14"/>
  <g id="svg_15">
   <linearGradient gradientTransform="matrix(1 0 0 -1 0 290.3937)" gradientUnits="userSpaceOnUse" id="SVGID_14_" x1="145.99" x2="151.63" y1="151.25" y2="137.98">
    <stop offset="0" stop-color="#FDF0DE" stop-opacity="0.8"/>
    <stop offset="1" stop-color="#FFB2DE" stop-opacity="0.7"/>
   </linearGradient>
   <path class="st14" d="m136.9,122.3c-13.3,7.4 -25.2,2.3 -29.3,-0.9c3.6,0.6 11.5,0.2 16.1,-3.5c4.8,-3.8 8.8,-8.2 12.6,-9c5,-0.9 8.6,1 10,2.4c5.2,5.3 4,3.6 -9.4,11z" id="svg_16"/>
  </g>
  <path class="st15" d="m46.1,83.9c-28.6,-6.9 -35.4,-28.7 -35.2,-38.7c3.5,7 8.8,11.5 20.5,18.2c43.1,15.5 56.7,32.6 62.7,37.8c0,0 -3.3,0.7 -12.1,-1.5c-18.9,-4.8 -7.3,-8.9 -35.9,-15.8z" id="svg_17"/>
  <path class="st16" d="m34.1,96.8c-15.3,-2.5 -23.2,-19.3 -25.3,-27.4c5.4,6.7 29.5,15.1 39,15.9c10.7,0.9 32.8,10.9 40.9,15.7l-8.3,0c-9.1,-0.3 -31,-1.7 -46.3,-4.2z" id="svg_18"/>
  <path class="st17" d="m68.2,113.7c-15.2,6.8 -29.4,7 -34.6,6.2c14.5,20.9 49.3,3.9 64.9,-7.2l-2.3,-5.7c-3,-0.6 -12.9,-0.1 -28,6.7z" id="svg_19"/>
  <path class="st18" d="m54.7,102.3c-14.4,2.9 -30.4,0.3 -36.4,-1.3c9.3,12.8 24.3,12.6 27.2,13c8,1 31.6,-3.7 35.2,-5.2c2.9,-1.1 11.5,-1.7 15.4,-1.8l-2.1,-5.9c-7.1,-0.8 -32.2,-0.3 -39.3,1.2z" id="svg_20"/>
  <path class="st19" d="m86.5,126.5c-16.3,10.2 -33.9,9.9 -39.2,8.9c2.4,1.5 3.8,2.5 6.2,4l3.4,1.9l7.7,1.2l14.2,-4.4l14.6,-7.2l7.9,-5c3.3,-1.6 11.5,-4.9 9.4,-5c-2.1,-0.1 -7.9,-3.2 -9.4,-4.8l-14.8,10.4z" id="svg_21"/>
  <path class="st20" d="m100.9,116.3c-38.6,30.6 -57.1,20.7 -61.2,12.4c19.3,9.7 47.1,-6.7 58.5,-16.3c2.3,1.6 2.9,3.4 2.7,3.9z" id="svg_22"/>
  <path class="st21" d="m66.1,55.1c-20,-19.4 -27.8,-39.9 -29.2,-47.7c0.9,21.6 20.5,42.6 26.9,48.8c1.6,1.8 13,14.8 18.2,21.7c2.1,2.3 6.3,7 8.6,13.9c2.4,7.1 2.1,7.2 5.2,15.5c2.3,6.1 6.1,11.3 11.4,12.8c0.9,0.3 6.8,0.9 8.3,0.6l5.2,-1l3.1,-2.2l2.7,-1.8l4.1,-4l3.2,-2.2l4.5,-0.9l8.1,4.1l2.2,3.4l2.2,2.5l4.6,1.3l3.9,2.3c0.8,0.9 1.7,2.3 1.2,1.2c-0.5,-1.1 -2.8,-4 -4.1,-4.8c-6.2,-3.4 -5.4,-3.6 -6.2,-5.5c-4.5,-10.1 -17.4,-7.9 -20.8,-3.9c-26.5,25 -33.4,-9.4 -36.1,-16.9c-1.4,-7.6 -18.4,-27.4 -27.2,-37.2z" id="svg_23"/>
  <path class="st22" d="m46.7,135.2c0.2,0.5 5,4.3 5.2,4.4c0.1,0.1 6.2,2.6 6.2,2.6l9.3,0l13.2,-3.9l9.7,-4.9l3.5,-3.4c-6.3,2.9 -19.9,9 -24.3,10.3c-4.3,1.3 -8.3,1.4 -13.3,-0.1c-2.6,-0.8 -9.7,-5.6 -9.5,-5z" id="svg_24"/>
  <path class="st23" d="m96.5,134.3l12,-13.4c-0.6,0.3 -5.8,3.6 -22.5,13.4c-16.6,9.8 -29.7,7.5 -34.2,5.3c4.8,4.8 13.2,5.9 14.6,5.8c1.1,-0.1 9.3,-2.5 13.3,-3.6l16.8,-7.5z" id="svg_25"/>
  <path class="st24" d="m159.4,124.2c1.5,0.4 1.8,0.1 1.7,-0.1c-1.1,-1.6 -4.3,-4.4 -7,-5c-2.8,-0.7 -4.6,-3 -5,-4.4c-1.7,-4.9 -7.7,-6.3 -10.5,-6.5c-5.3,-0.7 -8.9,4 -13.6,8.1c-2.2,1.9 -8.4,5.5 -16.5,4.5c-3.6,3.2 -11.7,10.4 -15,13.4c-3.3,3 -17.5,8.3 -23.9,10.3c0,1.3 -6.1,11.1 -9.4,16c-1.5,2.3 -6.1,7.7 -13,11.1c-8.6,4.3 -23.4,10.3 -25,11.2c-1.3,0.7 -0.6,1.5 0,1.8c0.6,0.3 2.8,0.5 2.8,0.5c4,0.2 13.9,-0.6 21.8,-5.8c7.9,-5.2 13.8,-6.7 15.7,-6.8c29.2,1.9 36.7,-2.3 49.3,-7.2c10.1,-3.9 17.6,-15.5 20.1,-20.8l5.4,-13.4c0,0 1.6,-4.9 5.4,-7.1c4.9,-2.6 14.8,-0.3 16.7,0.2z" id="svg_26"/>
  <path class="st25" d="m143.9,116c-1.4,-0.2 -1.9,-1.2 -2,-1.8c0.8,-1.6 2.4,-0.7 3.1,-0.1c0.2,0.8 0.3,2.1 -1.1,1.9z" id="svg_27"/>
  <path class="st26" d="m160.6,123.7c-1.5,-2.2 -5.6,-5.2 -7.8,-4.5c-0.4,0.1 -1,0.6 -0.1,1.2c1.1,0.8 1.3,0.4 2.9,1.2c1.2,0.6 1.4,0.8 1.4,1c-1.4,-1.1 -2.2,-1 -3.5,-1.3c-1.1,-0.3 -1.8,1.1 -1.8,1.5c0.8,0.1 2.1,0.3 6,0.9c2.9,0.4 3.1,0.4 2.9,0z" id="svg_28"/>
 </g>
</svg>