<?xml version="1.0"?>
<svg width="800" height="200" xmlns="http://www.w3.org/2000/svg" xmlns:svg="http://www.w3.org/2000/svg" enable-background="new 0 0 243 288" version="1.1" xml:space="preserve">
 <style type="text/css">.st0{fill:none;}
	.st1{fill:url(#SVGID_1_);}
	.st2{fill:url(#SVGID_2_);}
	.st3{fill:url(#SVGID_3_);}
	.st4{fill:url(#SVGID_4_);}
	.st5{fill:url(#SVGID_5_);}
	.st6{fill:url(#SVGID_6_);}
	.st7{fill:url(#SVGID_7_);}
	.st8{fill:url(#SVGID_8_);}
	.st9{fill:url(#SVGID_9_);}
	.st10{fill:url(#SVGID_10_);}
	.st11{fill:url(#SVGID_11_);}
	.st12{fill:url(#SVGID_12_);}
	.st13{fill:url(#SVGID_13_);}
	.st14{fill:url(#SVGID_14_);}
	.st15{fill:url(#SVGID_15_);}
	.st16{fill:url(#SVGID_16_);}
	.st17{fill:url(#SVGID_17_);}
	.st18{fill:url(#SVGID_18_);}
	.st19{fill:url(#SVGID_19_);}
	.st20{fill:url(#SVGID_20_);}
	.st21{fill:url(#SVGID_21_);}
	.st22{fill:url(#SVGID_22_);}
	.st23{fill:url(#SVGID_23_);}
	.st24{fill:url(#SVGID_24_);}
	.st25{fill:url(#SVGID_25_);}
	.st26{fill:url(#SVGID_26_);}</style>
 <linearGradient gradientTransform="matrix(1 0 0 -1 0 290.3937)" gradientUnits="userSpaceOnUse" id="SVGID_1_" x1="163.7" x2="82.95" y1="215.23" y2="94.87">
  <stop offset="0" stop-color="#F9E0C6"/>
  <stop offset="0.17" stop-color="#FF9DA5"/>
  <stop offset="0.41" stop-color="#E5468D"/>
  <stop offset="0.54" stop-color="#A12EC5"/>
  <stop offset="0.81" stop-color="#493FB7"/>
  <stop offset="1" stop-color="#1874CB"/>
 </linearGradient>
 <linearGradient gradientTransform="matrix(1 0 0 -1 0 290.3937)" gradientUnits="userSpaceOnUse" id="SVGID_2_" x1="122.62" x2="98.17" y1="250.08" y2="139.53">
  <stop offset="0" stop-color="#FFFEFE"/>
  <stop offset="0.23" stop-color="#FFA2A5"/>
  <stop offset="1" stop-color="#D74199" stop-opacity="0"/>
 </linearGradient>
 <linearGradient gradientTransform="matrix(1 0 0 -1 0 290.3937)" gradientUnits="userSpaceOnUse" id="SVGID_3_" x1="135.12" x2="115.16" y1="255.76" y2="127.95">
  <stop offset="0.14" stop-color="#FAF7EF"/>
  <stop offset="0.46" stop-color="#FFDACE"/>
  <stop offset="1" stop-color="#E5468E" stop-opacity="0.32"/>
 </linearGradient>
 <linearGradient gradientTransform="matrix(1 0 0 -1 0 290.3937)" gradientUnits="userSpaceOnUse" id="SVGID_4_" x1="134.14" x2="127.38" y1="254.81" y2="131.98">
  <stop offset="0.56" stop-color="#FAF7EF"/>
  <stop offset="1" stop-color="#F09EB5"/>
 </linearGradient>
 <linearGradient gradientTransform="matrix(1 0 0 -1 0 290.3937)" gradientUnits="userSpaceOnUse" id="SVGID_5_" x1="22.27" x2="87.31" y1="91.48" y2="118.06">
  <stop offset="0" stop-color="#FFC4E4"/>
  <stop offset="0.2" stop-color="#F31D92"/>
  <stop offset="1" stop-color="#D026A8"/>
 </linearGradient>
 <linearGradient gradientTransform="matrix(1 0 0 -1 0 290.3937)" gradientUnits="userSpaceOnUse" id="SVGID_6_" x1="22.38" x2="91.68" y1="93.96" y2="124.16">
  <stop offset="0" stop-color="#F8F5F3"/>
  <stop offset="1" stop-color="#ECC9DC"/>
 </linearGradient>
 <linearGradient gradientTransform="matrix(1 0 0 -1 0 290.3937)" gradientUnits="userSpaceOnUse" id="SVGID_7_" x1="40.83" x2="90.13" y1="252.56" y2="176.81">
  <stop offset="0.12" stop-color="#7CB3E9"/>
  <stop offset="0.26" stop-color="#1D6EBD"/>
  <stop offset="1" stop-color="#D31379"/>
 </linearGradient>
 <linearGradient gradientTransform="matrix(1 0 0 -1 0 290.3937)" gradientUnits="userSpaceOnUse" id="SVGID_8_" x1="26.72" x2="91.24" y1="227.5" y2="178.33">
  <stop offset="0.04" stop-color="#FF7C8E"/>
  <stop offset="0.14" stop-color="#F13D56"/>
  <stop offset="1" stop-color="#913CB1"/>
 </linearGradient>
 <linearGradient gradientTransform="matrix(1 0 0 -1 0 290.3937)" gradientUnits="userSpaceOnUse" id="SVGID_9_" x1="24.91" x2="100.41" y1="203" y2="165.7">
  <stop offset="0.04" stop-color="#FF8DA0"/>
  <stop offset="0.12" stop-color="#F43857"/>
  <stop offset="1" stop-color="#8424A3"/>
 </linearGradient>
 <linearGradient gradientTransform="matrix(1 0 0 -1 0 290.3937)" gradientUnits="userSpaceOnUse" id="SVGID_10_" x1="27.07" x2="100.24" y1="178.75" y2="162.1">
  <stop offset="0" stop-color="#FF80B3"/>
  <stop offset="0.3" stop-color="#F4267A"/>
  <stop offset="1" stop-color="#C61C93"/>
 </linearGradient>
 <linearGradient gradientTransform="matrix(1 0 0 -1 0 290.3937)" gradientUnits="userSpaceOnUse" id="SVGID_11_" x1="46.79" x2="114.8" y1="142.58" y2="147.09">
  <stop offset="0.05" stop-color="#FF87CC"/>
  <stop offset="0.1" stop-color="#EE289A"/>
  <stop offset="0.9" stop-color="#CA0C7E"/>
 </linearGradient>
 <linearGradient gradientTransform="matrix(1 0 0 -1 0 290.3937)" gradientUnits="userSpaceOnUse" id="SVGID_12_" x1="31.66" x2="136.19" y1="165.3" y2="147.87">
  <stop offset="0" stop-color="#FF8DBC"/>
  <stop offset="0.14" stop-color="#EE2E7D"/>
  <stop offset="1" stop-color="#BE2591"/>
 </linearGradient>
 <linearGradient gradientTransform="matrix(1 0 0 -1 0 290.3937)" gradientUnits="userSpaceOnUse" id="SVGID_13_" x1="32.39" x2="92.27" y1="80.88" y2="118.94">
  <stop offset="0.06" stop-color="#FFA8D8"/>
  <stop offset="0.26" stop-color="#F81993"/>
  <stop offset="1" stop-color="#CC27A9"/>
 </linearGradient>
 <linearGradient gradientTransform="matrix(1 0 0 -1 0 290.3937)" gradientUnits="userSpaceOnUse" id="SVGID_15_" x1="27.7" x2="88.17" y1="218.7" y2="174.13">
  <stop offset="0.04" stop-color="#ACAAFE"/>
  <stop offset="0.2" stop-color="#3F3CB4"/>
  <stop offset="1" stop-color="#CD147C"/>
 </linearGradient>
 <linearGradient gradientTransform="matrix(1 0 0 -1 0 290.3937)" gradientUnits="userSpaceOnUse" id="SVGID_16_" x1="46.16" x2="83.44" y1="209.9" y2="156.91">
  <stop offset="0" stop-color="#8A87FF"/>
  <stop offset="0.33" stop-color="#3F3CB4"/>
  <stop offset="1" stop-color="#CB147E"/>
 </linearGradient>
 <linearGradient gradientTransform="matrix(1 0 0 -1 0 290.3937)" gradientUnits="userSpaceOnUse" id="SVGID_17_" x1="51.1" x2="99.62" y1="139.75" y2="153.04">
  <stop offset="0" stop-color="#3F3CB4"/>
  <stop offset="1" stop-color="#CA0C7E"/>
 </linearGradient>
 <linearGradient gradientTransform="matrix(1 0 0 -1 0 290.3937)" gradientUnits="userSpaceOnUse" id="SVGID_18_" x1="14.87" x2="95.53" y1="158.03" y2="164.09">
  <stop offset="0" stop-color="#3F3CB4"/>
  <stop offset="1" stop-color="#CA0C7E"/>
 </linearGradient>
 <linearGradient gradientTransform="matrix(1 0 0 -1 0 290.3937)" gradientUnits="userSpaceOnUse" id="SVGID_19_" x1="70.49" x2="116.17" y1="127.73" y2="144.64">
  <stop offset="0" stop-color="#C213A1"/>
  <stop offset="1" stop-color="#CA0C7E"/>
 </linearGradient>
 <linearGradient gradientTransform="matrix(1 0 0 -1 0 290.3937)" gradientUnits="userSpaceOnUse" id="SVGID_20_" x1="58.41" x2="110.55" y1="134.87" y2="146.61">
  <stop offset="0" stop-color="#4C15B5"/>
  <stop offset="1" stop-color="#CA0C7E"/>
 </linearGradient>
 <linearGradient gradientTransform="matrix(1 0 0 -1 0 290.3937)" gradientUnits="userSpaceOnUse" id="SVGID_21_" x1="50.16" x2="174.31" y1="255.56" y2="121.35">
  <stop offset="0" stop-color="#FFFCE3"/>
  <stop offset="1" stop-color="#FFFFFF"/>
 </linearGradient>
 <linearGradient gradientTransform="matrix(1 0 0 -1 0 290.3937)" gradientUnits="userSpaceOnUse" id="SVGID_22_" x1="69.11" x2="110.14" y1="128.53" y2="137.05">
  <stop offset="0.01" stop-color="#FF4FB5"/>
  <stop offset="0.09" stop-color="#E92496"/>
  <stop offset="1" stop-color="#C90E86"/>
 </linearGradient>
 <linearGradient gradientTransform="matrix(1 0 0 -1 0 290.3937)" gradientUnits="userSpaceOnUse" id="SVGID_23_" x1="78.91" x2="112.82" y1="142.83" y2="132.76">
  <stop offset="0" stop-color="#6562E9"/>
  <stop offset="0.19" stop-color="#3F3CB4"/>
  <stop offset="1" stop-color="#CA0C7E"/>
 </linearGradient>
 <radialGradient cx="-713.13" cy="575.76" gradientTransform="matrix(21.6808 33.4246 71.7533 -46.5427 -25740.1328 50786.1328)" gradientUnits="userSpaceOnUse" id="SVGID_24_" r="1">
  <stop offset="0.01" stop-color="#E92190"/>
  <stop offset="0.35" stop-color="#CD27A8"/>
  <stop offset="0.62" stop-color="#861FB5"/>
  <stop offset="0.93" stop-color="#2495DF"/>
  <stop offset="1" stop-color="#1FA2FF"/>
 </radialGradient>
 <linearGradient gradientTransform="matrix(1 0 0 -1 0 290.3937)" gradientUnits="userSpaceOnUse" id="SVGID_25_" x1="161.5" x2="178" y1="153.76" y2="143.09">
  <stop offset="0" stop-color="#FFFFFF"/>
  <stop offset="1" stop-color="#0094FF"/>
 </linearGradient>
 <linearGradient gradientTransform="matrix(1 0 0 -1 0 290.3937)" gradientUnits="userSpaceOnUse" id="SVGID_26_" x1="161.56" x2="178.05" y1="153.84" y2="143.17">
  <stop offset="0" stop-color="#FFFFFF"/>
  <stop offset="1" stop-color="#0094FF"/>
 </linearGradient>
 <g class="layer">
  <title>Layer 1</title>
  <rect class="st0" height="196" id="svg_1" width="796.4" x="2" y="2"/>
  <g id="svg_46">
   <path d="m27.06,134.1c3.04,0 5.07,1 7.1,2.5c2.03,2 3.04,4 3.04,7c0,3 -1.01,5 -3.04,7c-2.03,2 -4.06,2.5 -7.1,2.5l-11.16,0l0,-30.5l19.28,0l0,3.5l-15.22,0l0,8l7.1,0zm-0.51,15c2.03,0 3.55,-0.5 4.57,-1.5c1.01,-1 2.03,-2.5 2.03,-4c0,-1.5 -0.51,-3 -1.52,-4c-1.01,-1 -2.54,-1.5 -4.57,-1.5l-7.1,0l0,11.5l6.6,0l0,-0.5l-0.01,0z" id="svg_47"/>
   <path d="m46.34,129.6l15.73,0l0,23.5l-3.55,0l0,-20.5l-8.62,0l-1.01,12c-0.51,3 -1.01,5.5 -2.54,6.5c-1.52,1.5 -3.04,2 -6.09,2l-0.51,0l0,-3.5l0.51,0c1.52,0 2.54,-0.5 3.04,-1c0.51,-1 1.01,-2 1.52,-3.5l1.52,-15.5z" id="svg_48"/>
   <path d="m90.47,129.6l3.04,0l0,23.5l-3.04,0l-0.51,-3.5c-1.01,1.5 -2.54,2.5 -4.06,3c-1.52,0.5 -3.55,1 -5.07,1c-3.55,0 -6.6,-1 -8.62,-3.5c-2.54,-2.5 -3.55,-5.5 -3.55,-9c0,-3.5 1.01,-6.5 3.55,-9c2.54,-2.5 5.07,-3.5 8.62,-3.5c2.03,0 3.55,0.5 5.58,1c1.52,0.5 3.04,2 4.06,3l0,-3zm-16.23,18c1.52,1.5 3.55,2.5 6.09,2.5s4.57,-1 6.09,-2.5c1.52,-1.5 2.54,-4 2.54,-6.5s-1.01,-4.5 -2.54,-6.5c-1.52,-1.5 -3.55,-2.5 -6.09,-2.5s-4.57,1 -6.09,2.5c-1.52,1.5 -2.54,4 -2.54,6s1.01,5 2.54,7z" id="svg_49"/>
   <path d="m115.84,129.6l0,3.5l-11.16,0l0,20.5l-3.55,0l0,-23.5l14.71,0l0,-0.5z" id="svg_50"/>
   <path d="m130.04,153.6c-2.54,0 -4.57,-0.5 -6.6,-1.5c-2.03,-1 -3.55,-2.5 -4.57,-4.5s-1.52,-4 -1.52,-6.5c0,-3.5 1.01,-6.5 3.55,-9s5.58,-3.5 9.13,-3.5c2.54,0 4.57,0.5 6.6,1.5c2.03,1 3.55,2.5 4.57,4.5s1.52,4 1.52,6.5c0,3.5 -1.01,6.5 -3.55,9c-2.03,2.5 -5.07,3.5 -9.13,3.5zm-6.09,-6c1.52,1.5 3.55,2.5 6.6,2.5s4.57,-1 6.6,-2.5c1.52,-1.5 2.54,-4 2.54,-6.5s-1.01,-4.5 -2.54,-6.5c-1.52,-1.5 -3.55,-2.5 -6.6,-2.5s-4.57,1 -6.6,2.5c-1.52,1.5 -2.54,4 -2.54,6.5s1.01,4.5 2.54,6.5z" id="svg_51"/>
   <path d="m166.57,129.6l0,3.5l-9.13,0l0,20.5l-3.55,0l0,-20.5l-9.13,0l0,-3.5l21.81,0z" id="svg_52"/>
   <path d="m186.36,140.6c1.01,0.5 2.03,1 3.04,2c0.51,1 1.01,2 1.01,3.5c0,2 -0.51,3.5 -2.03,4.5c-1.52,1.5 -3.04,2 -5.07,2l-12.18,0l0,-23.5l12.18,0c2.03,0 3.55,0.5 5.07,1.5c1.01,1 2.03,2.5 2.03,4.5c0,1 0,1.5 -0.51,2c-0.51,0.5 -0.51,1.5 -1.01,2c-1.01,1 -1.52,1.5 -2.54,1.5l0.01,0zm-0.51,-4.5c0,-1 -0.51,-1.5 -1.01,-2.5c-0.51,-0.5 -1.52,-1 -2.54,-1l-7.61,0l0,6.5l7.61,0c1.01,0 2.03,-0.5 2.54,-1c1.01,-0.5 1.01,-1 1.01,-2zm-3.04,13.5c0.51,0 1.52,0 2.03,-0.5c0.51,-0.5 1.01,-0.5 1.52,-1c0.51,-0.5 0.51,-1 0.51,-2c0,-0.5 0,-1.5 -0.51,-2c-0.51,-0.5 -1.01,-1 -1.52,-1c-0.51,-0.5 -1.52,-0.5 -2.03,-0.5l-8.12,0l0,7l8.12,0z" id="svg_53"/>
   <path d="m207.66,153.6c-2.54,0 -4.57,-0.5 -6.6,-1.5c-2.03,-1 -3.55,-2.5 -4.57,-4.5s-1.52,-4 -1.52,-6.5c0,-3.5 1.01,-6.5 3.55,-9s5.58,-3.5 9.13,-3.5c2.54,0 4.57,0.5 6.6,1.5c2.03,1 3.55,2.5 4.57,4.5s1.52,4 1.52,6.5c0,3.5 -1.01,6.5 -3.55,9c-2.54,2.5 -5.58,3.5 -9.13,3.5zm-6.6,-6c1.52,1.5 3.55,2.5 6.6,2.5s4.57,-1 6.6,-2.5c1.52,-1.5 2.54,-4 2.54,-6.5s-1.01,-4.5 -2.54,-6.5c-1.52,-1.5 -3.55,-2.5 -6.6,-2.5s-4.57,1 -6.6,2.5c-1.52,1.5 -2.54,4 -2.54,6.5s1.01,4.5 2.54,6.5z" id="svg_54"/>
   <path d="m238.61,128.6c3.55,0 6.6,1 8.62,3.5s3.55,5.5 3.55,9c0,3.5 -1.01,6.5 -3.55,9s-5.07,3.5 -8.62,3.5c-3.55,0 -6.6,-1 -9.13,-3.5l0,11.5l-3.55,0l0,-32l2.54,0l0.51,3.5c1.01,-1.5 2.54,-2.5 4.06,-3c2.03,-1 3.55,-1.5 5.58,-1.5l-0.01,0zm0,21.5c2.54,0 4.57,-1 6.09,-2.5c1.52,-1.5 2.54,-4 2.54,-6.5s-1.01,-4.5 -2.54,-6.5c-1.52,-1.5 -3.55,-2.5 -6.09,-2.5s-4.57,1 -6.09,2.5c-1.52,1.5 -2.54,4 -2.54,6c0,1.5 0.51,3 1.01,4.5c0.51,1.5 2.03,2.5 3.04,3s2.54,2 4.57,2l0.01,0z" id="svg_55"/>
   <path d="m274.63,129.6l2.03,0l0,23.5l-3.55,0l0,-17l-14.2,17l-2.03,0l0,-23.5l3.55,0l0,17l14.2,-17z" id="svg_56"/>
   <path d="m302.53,129.6l0,3.5l-8.62,0l0,20.5l-3.55,0l0,-20.5l-9.13,0l0,-3.5l21.31,0l-0.01,0z" id="svg_57"/>
   <path d="m328.91,141.1c0,0.5 0,1 0,1.5l-20.29,0c0.51,2 1.01,4 2.54,5.5c1.52,1.5 3.55,2 5.58,2c1.52,0 3.04,-0.5 4.57,-1c1.52,-0.5 2.54,-1.5 3.04,-3l4.06,0c-1.01,2.5 -2.54,4.5 -4.57,5.5c-2.03,1.5 -4.57,2 -7.1,2c-3.55,0 -6.6,-1 -8.62,-3.5c-2.54,-2.5 -3.55,-5.5 -3.55,-9c0,-3.5 1.01,-6.5 3.55,-9c2.54,-2.5 5.07,-3.5 8.62,-3.5c3.55,0 6.6,1 8.62,3.5s3.55,5.5 3.55,9zm-12.18,-8.5c-1.52,0 -2.54,0.5 -4.06,1c-1.01,0.5 -2.03,1.5 -3.04,2.5c-1.01,1 -1.52,2 -1.52,3.5l16.74,0c-0.51,-1.5 -1.01,-2.5 -1.52,-3.5c-1.01,-1 -1.52,-2 -3.04,-2.5c-0.51,-1 -2.03,-1 -3.55,-1l-0.01,0z" id="svg_58"/>
   <path d="m338.04,129.6l15.73,0l0,23.5l-3.55,0l0,-20.5l-8.62,0l-1.01,12c-0.51,3 -1.01,5.5 -2.54,6.5c-1.52,1.5 -3.04,2 -6.09,2l-0.51,0l0,-3.5l1.01,0c1.52,0 2.54,-0.5 3.04,-1c0.51,-1 1.01,-2 1.52,-3.5l1.01,-15.5l0.01,0z" id="svg_59"/>
   <path d="m371.02,136.6c2.54,0 4.57,1 6.09,2.5c1.52,1.5 2.54,3.5 2.54,6c0,2.5 -1.01,4.5 -2.54,6c-1.52,1.5 -3.55,2.5 -6.09,2.5l-9.64,0l0,-23.5l3.55,0l0,7.5l6.09,0l0,-1zm-0.51,13c1.52,0 3.04,-0.5 3.55,-1.5s1.52,-2 1.52,-3.5c0,-1.5 -0.51,-2.5 -1.52,-3.5c-1.01,-1 -2.03,-1.5 -3.55,-1.5l-5.58,0l0,9.5l5.58,0l0,0.5z" id="svg_60"/>
   <path d="m401.46,129.6l3.55,0l0,23.5l-3.55,0l0,-10.5l-12.68,0l0,10.5l-3.55,0l0,-23.5l3.55,0l0,9.5l12.68,0l0,-9.5z" id="svg_61"/>
   <path d="m422.26,136.6c2.54,0 4.57,1 6.09,2.5c1.52,1.5 2.54,3.5 2.54,6c0,2.5 -1.01,4.5 -2.54,6c-1.52,1.5 -3.55,2.5 -6.09,2.5l-9.64,0l0,-23.5l3.55,0l0,7.5l6.09,0l0,-1zm-0.51,13c1.52,0 3.04,-0.5 3.55,-1.5s1.52,-2 1.52,-3.5c0,-1.5 -0.51,-2.5 -1.52,-3.5c-1.01,-1 -2.03,-1.5 -3.55,-1.5l-5.58,0l0,9.5l5.58,0l0,0.5zm13.7,-20l3.55,0l0,23.5l-3.55,0l0,-23.5z" id="svg_62"/>
   <path d="m464.36,129.6l2.03,0l0,23.5l-3.55,0l0,-17l-14.2,17l-2.03,0l0,-23.5l3.55,0l0,17l14.2,-17zm-1.52,-8l0,3l-11.67,0l0,-3l11.67,0z" id="svg_63"/>
   <path d="m512.56,141.1c0,3.5 -1.01,6.5 -3.55,8.5s-5.58,3.5 -9.13,3.5l0,7l-3.55,0l0,-6.5c-2.54,0 -4.57,-0.5 -6.6,-1.5c-2.03,-1 -3.55,-2.5 -4.57,-4.5c-1.01,-2 -1.52,-4 -1.52,-6c0,-3.5 1.01,-6.5 3.55,-9c2.54,-2.5 5.58,-3.5 9.13,-3.5l0,-6.5l3.55,0l0,6.5c3.55,0 6.6,1.5 9.13,3.5c2.54,2 3.55,5 3.55,8.5l0.01,0zm-22.32,-6c-1.52,1.5 -2.54,3.5 -2.54,6s1.01,4.5 2.54,6c1.52,1.5 3.55,2.5 6.09,2.5l0,-17.5c-2.54,0.5 -4.57,1.5 -6.09,3zm10.15,14.5c2.54,0 4.57,-1 6.09,-2.5c1.52,-1.5 2.54,-3.5 2.54,-6c0,-2.5 -1.01,-4.5 -2.54,-6c-1.52,-1.5 -3.55,-2.5 -6.09,-2.5l0,17z" id="svg_64"/>
   <path d="m529.3,153.6c-2.54,0 -4.57,-0.5 -6.6,-1.5c-2.03,-1 -3.55,-2.5 -4.57,-4.5c-1.01,-2 -1.52,-4 -1.52,-6.5c0,-3.5 1.01,-6.5 3.55,-9s5.58,-3.5 9.13,-3.5c2.54,0 4.57,0.5 6.6,1.5c2.03,1 3.55,2.5 4.57,4.5s1.52,4 1.52,6.5c0,3.5 -1.01,6.5 -3.55,9s-5.58,3.5 -9.13,3.5zm-6.09,-6c1.52,1.5 3.55,2.5 6.6,2.5c2.54,0 4.57,-1 6.6,-2.5s2.54,-4 2.54,-6.5s-1.01,-4.5 -2.54,-6.5s-3.55,-2.5 -6.6,-2.5c-2.54,0 -4.57,1 -6.6,2.5s-2.54,4 -2.54,6.5s0.51,4.5 2.54,6.5z" id="svg_65"/>
   <path d="m564.3,129.6l3.55,0l0,23.5l-3.55,0l0,-10.5l-12.68,0l0,10.5l-3.55,0l0,-23.5l3.55,0l0,9.5l12.68,0l0,-9.5z" id="svg_66"/>
   <path d="m595.76,149.6l3.04,0l0,10l-3.55,0l0,-6.5l-19.28,0l0,6.5l-3.04,0l0,-10l2.54,0c0.51,-0.5 1.01,-1.5 1.52,-2.5c0.51,-1 0.51,-3 1.01,-5.5s0.51,-6.5 1.01,-12l16.74,0l0,20l0.01,0zm-13.19,-17c-0.51,4 -0.51,7 -1.01,9c-0.51,2 -0.51,4 -1.01,5c-0.51,1 -1.01,2 -1.52,2.5l12.68,0l0,-17l-9.13,0l0,0.5l-0.01,0z" id="svg_67"/>
  </g>
  <g id="svg_68">
   <path d="m8.92,75.2c1.01,3.41 3.03,4.05 5.25,4.05l4.65,0l0,23.89l11.32,0l0,-23.89l9.5,0l0,-10.45l-32.73,0l2.02,6.4l-0.01,0z" id="svg_29"/>
   <path d="m45.49,77.97l0,24.96l11.32,0l0,-11.3l0.2,0l0.61,1.92c0.2,0.85 1.41,1.49 2.22,1.49l9.5,0c1.82,0 3.84,-1.92 4.04,-3.84l2.63,-18.56c0.2,-1.71 -1.82,-3.84 -3.43,-3.84l-30.31,0l3.23,9.17l-0.01,0zm11.32,8.96l0,-10.45l6.67,0c0.2,0 0.4,0.21 0.4,0.43l-1.01,9.6c0,0.21 -0.2,0.43 -0.4,0.43l-5.66,0l0,-0.01z" id="svg_30"/>
   <path d="m88.94,103.14l1.01,-5.12l6.06,0c1.41,0 3.03,-0.85 3.43,-2.13l0.61,-1.49l1.62,8.75l11.52,0l-6.67,-34.34l-27.08,0l3.23,9.39l-4.85,24.96l11.11,0l0.01,-0.02zm4.85,-25.6l3.03,0l2.42,13.22l-8.08,0l2.63,-13.22z" id="svg_31"/>
   <path d="m117.83,78.19l0,24.96l28.89,0l-2.22,-6.4c-0.61,-1.92 -2.02,-2.13 -2.83,-2.13l-12.53,0l0,-7.47l0,0l0.81,1.28c0.4,0.43 1.01,1.07 1.41,1.07l6.47,0c1.01,0 2.02,-0.43 2.42,-1.49l2.02,-5.76l-13.34,0l0,-4.91l12.73,0c1.01,0 1.82,-0.64 2.42,-1.49l2.42,-7.04l-31.93,0l3.23,9.39l0.03,-0.01z" id="svg_32"/>
   <path d="m174.61,68.8c-3.03,0 -5.25,2.35 -6.26,4.69l-5.05,10.88l-0.4,0l0,-15.36l-14.55,0l3.23,9.39l0,24.96l11.32,0l0,-16l0.4,0l0.2,0.85c0.2,1.07 0.81,2.13 1.82,2.13l3.84,0c0.61,0 1.21,0.64 1.41,1.28l3.43,11.73l12.73,0l-5.05,-15.78c-0.81,-2.77 -3.43,-4.69 -6.26,-4.69l-1.82,0l2.02,-3.63c0.2,-0.64 0.81,-0.85 1.62,-0.85l5.46,0l3.23,-9.39l-11.32,0l0,-0.21z" id="svg_33"/>
   <path d="m190.17,75.2c1.01,3.41 3.03,4.05 5.25,4.05l4.65,0l0,23.89l11.32,0l0,-23.89l9.5,0l0,-10.45l-32.73,0l2.02,6.4l-0.01,0z" id="svg_34"/>
   <path d="m226.13,73.92l0,24.1c0,2.77 2.22,5.12 4.85,5.12l22.83,0c2.63,0 4.85,-2.35 4.85,-5.12l0,-24.1c0,-2.77 -2.22,-5.12 -4.85,-5.12l-22.83,0c-2.63,0 -4.85,2.35 -4.85,5.12zm11.32,5.55c0,-0.64 0.4,-1.07 1.01,-1.07l7.88,0c0.61,0 1.01,0.43 1.01,1.07l0,13.44c0,0.64 -0.4,1.07 -1.01,1.07l-7.88,0c-0.61,0 -1.01,-0.43 -1.01,-1.07l0,-13.44z" id="svg_35"/>
   <path d="m264.93,77.97l0,24.96l11.32,0l0,-11.3l0.2,0l0.61,1.92c0.2,0.85 1.41,1.49 2.22,1.49l9.5,0c1.82,0 3.84,-1.92 4.04,-3.84l2.63,-18.56c0.2,-1.71 -1.82,-3.84 -3.43,-3.84l-30.31,0l3.23,9.17l-0.01,0zm11.32,8.96l0,-10.45l6.67,0c0.2,0 0.4,0.21 0.4,0.43l-1.01,9.6c0,0.21 -0.2,0.43 -0.4,0.43l-5.66,0l0,-0.01z" id="svg_36"/>
   <path d="m308.98,103.35c2.63,0 5.05,-2.13 6.47,-4.48l8.28,-14.5l0,18.98l11.32,0l0,-34.34l-8.28,0c-3.23,0 -5.25,2.13 -6.67,4.48l-8.08,14.5l0,-19.2l-14.55,0l3.23,9.39l0,24.96l8.28,0l0,0.21z" id="svg_37"/>
   <path d="m342.92,69.01c-1.41,0 -2.63,1.07 -2.63,3.2l1.82,16.42c0.2,1.28 1.21,2.13 3.03,2.13l4.45,0l0,0.21c-1.01,0.21 -2.42,0.64 -2.83,1.28l-8.08,11.3l10.71,0c1.21,0 2.83,-0.64 3.43,-1.71l6.06,-9.6l1.41,-3.84l0.2,0l0,14.72l11.32,0l0,-34.34l-28.89,0l0,0.21l0,0.02zm17.58,9.6l0,5.97l-7.07,0c-0.2,0 -0.4,-0.21 -0.4,-0.43l-0.4,-5.12c0,-0.21 0,-0.43 0.2,-0.43l7.68,0l-0.01,0.01z" id="svg_38"/>
   <path d="m420.31,81.38l-9.7,0l0,-12.58l-14.55,0l3.23,9.39l0,25.17l11.32,0l0,-17.49l0.2,0l0.2,1.49c0.2,1.92 0.61,3.41 2.63,3.41l6.67,0l0,12.58l11.32,0l0,-34.34l-11.32,0l0,12.37z" id="svg_39"/>
   <path d="m446.78,103.14l1.01,-5.12l6.06,0c1.41,0 3.03,-0.85 3.43,-2.13l0.61,-1.49l1.82,8.75l11.52,0l-6.67,-34.34l-27.28,0l3.23,9.39l-4.65,24.96l10.91,0l0.01,-0.02zm4.85,-25.6l3.03,0l2.42,13.22l-8.08,0l2.63,-13.22z" id="svg_40"/>
   <path d="m481.94,109.11c1.21,-0.64 2.02,-2.13 2.02,-3.63l0,-2.13l17.38,0l0,8.75l9.09,-3.2c1.21,-0.64 2.02,-2.13 2.02,-3.63l0,-11.52l-4.24,0l0,-24.96l-31.72,0l3.23,9.39l-2.83,15.57l-4.24,0l0,18.34l9.29,-2.99l0,0.01zm4.85,-15.14l2.83,-16.42l7.07,0l0,16.42l-9.9,0z" id="svg_41"/>
   <path d="m517.1,77.97l0,24.96l28.89,0l-2.22,-6.4c-0.61,-1.92 -2.02,-2.13 -2.83,-2.13l-12.53,0l0,-7.47l0,0l0.81,1.28c0.4,0.43 1.01,1.07 1.41,1.07l6.47,0c1.01,0 2.02,-0.43 2.42,-1.49l2.02,-5.76l-13.34,0l0,-4.69l12.73,0c1.01,0 1.82,-0.64 2.42,-1.49l2.42,-7.04l-32.13,0l3.43,9.17l0.03,-0.01z" id="svg_42"/>
   <path d="m599.94,103.35l-5.46,-18.77c-0.4,-1.28 -1.82,-2.35 -3.23,-2.35l-1.82,0l1.82,-3.84c0,0 0,-0.21 0.4,-0.21l4.85,0l2.83,-9.39l-11.52,0c-1.21,0 -2.83,1.07 -3.23,2.35l-4.24,12.16l-1.21,0l0,-14.5l-11.32,0l0,14.5l-0.81,0l-4.24,-12.16c-0.4,-1.28 -1.82,-2.35 -3.03,-2.35l-11.52,0l2.83,9.39l4.85,0c0.4,0 0.4,0.21 0.61,0.21l1.82,3.84l-1.62,0c-1.21,0 -2.83,1.07 -3.23,2.35l-5.46,18.77l12.73,0l3.43,-12.8c0.2,-0.64 0.81,-1.28 1.41,-1.28l0.4,0c1.01,0 1.21,-1.07 1.62,-2.13l0.2,-0.85l0.4,0l0,16.85l11.32,0l0,-16.85l0.61,0l0.2,0.85c0.2,0.85 0.81,2.13 1.82,2.13l0.4,0c0.61,0 1.21,0.64 1.41,1.28l3.43,12.8l12.53,0l0.02,0z" id="svg_43"/>
   <path d="m610.25,109.11c1.21,-0.64 2.02,-2.13 2.02,-3.63l0,-2.13l17.17,0l0,8.75l9.09,-3.2c1.21,-0.64 2.02,-2.13 2.02,-3.63l0,-11.52l-4.24,0l0,-24.96l-31.52,0l3.23,9.39l-2.83,15.57l-4.04,0l0,18.34l9.09,-2.99l0.01,0.01zm4.85,-15.14l2.83,-16.42l7.07,0l0,16.42l-9.9,0z" id="svg_44"/>
   <path d="m642.17,69.01l3.23,9.39l0,24.96l25.86,0c2.02,0 4.04,-1.92 4.45,-4.05l2.22,-17.49c0,-2.13 -1.21,-3.41 -2.63,-3.41l-15.36,0c-0.81,0 -2.02,0.64 -2.22,1.49l-0.81,2.56l0,-13.65l-14.75,0l0,0.21l0.01,-0.01zm23.24,17.49c0.2,0 0.2,0.43 0.2,0.64l-0.61,6.4c0,0.21 -0.2,0.43 -0.4,0.43l-7.68,0l0,-7.47l8.49,0zm13.94,-17.49l3.23,9.39l0,24.96l11.32,0l0,-34.34l-14.55,0l0,-0.01z" id="svg_45"/>
  </g>
 </g>
</svg>